<svg xmlns="http://www.w3.org/2000/svg" viewBox="0 0 200 296" preserveAspectRatio="xMidYMid slice" style="position:absolute;top:0;left:0;width:100%;height:100%;display:block;"><rect width="200" height="296" fill="#EEF0E6"/><line x1="0" y1="40" x2="200" y2="40" stroke="#8A9A7A" stroke-width="0.5" opacity="0.3"/><line x1="0" y1="65" x2="200" y2="65" stroke="#8A9A7A" stroke-width="0.5" opacity="0.3"/><line x1="0" y1="90" x2="200" y2="90" stroke="#8A9A7A" stroke-width="0.5" opacity="0.3"/><line x1="0" y1="115" x2="200" y2="115" stroke="#8A9A7A" stroke-width="0.5" opacity="0.3"/><line x1="0" y1="140" x2="200" y2="140" stroke="#8A9A7A" stroke-width="0.5" opacity="0.3"/><line x1="0" y1="165" x2="200" y2="165" stroke="#8A9A7A" stroke-width="0.5" opacity="0.3"/><line x1="25" y1="0" x2="25" y2="190" stroke="#8A9A7A" stroke-width="0.5" opacity="0.3"/><line x1="65" y1="0" x2="65" y2="190" stroke="#8A9A7A" stroke-width="0.5" opacity="0.3"/><line x1="100" y1="0" x2="100" y2="190" stroke="#8A9A7A" stroke-width="0.5" opacity="0.38"/><line x1="135" y1="0" x2="135" y2="190" stroke="#8A9A7A" stroke-width="0.5" opacity="0.3"/><line x1="175" y1="0" x2="175" y2="190" stroke="#8A9A7A" stroke-width="0.5" opacity="0.3"/><ellipse cx="78" cy="85" rx="42" ry="28" fill="#7A9060" opacity="0.38"/><ellipse cx="148" cy="72" rx="34" ry="22" fill="#8A8A5A" opacity="0.35"/><ellipse cx="50" cy="140" rx="26" ry="17" fill="#7A8050" opacity="0.32"/><ellipse cx="140" cy="135" rx="38" ry="20" fill="#9A8060" opacity="0.32"/><line x1="28" y1="196" x2="172" y2="196" stroke="#A8A880" stroke-width="0.6"/><text x="100" y="217" text-anchor="middle" font-family="Arial Black,sans-serif" font-size="10" font-weight="900" fill="#1A1A08" letter-spacing="0.3">GUNS, GERMS,</text><text x="100" y="235" text-anchor="middle" font-family="Arial Black,sans-serif" font-size="10" font-weight="900" fill="#1A1A08" letter-spacing="0.3">AND STEEL</text><line x1="38" y1="244" x2="162" y2="244" stroke="#6A7A50" stroke-width="1.2"/><text x="100" y="278" text-anchor="middle" font-family="Arial,sans-serif" font-size="8.5" fill="#4A4A30" letter-spacing="0.3">Jared Diamond</text></svg>