<svg xmlns="http://www.w3.org/2000/svg" viewBox="0 0 200 296" preserveAspectRatio="xMidYMid slice" style="position:absolute;top:0;left:0;width:100%;height:100%;display:block;"><rect width="200" height="296" fill="#EEF4F8"/><rect x="30" y="26" width="140" height="14" rx="7" fill="#2A5080" opacity="0.12"/><rect x="30" y="46" width="140" height="14" rx="7" fill="#2A5080" opacity="0.20"/><rect x="30" y="66" width="140" height="14" rx="7" fill="#2A5080" opacity="0.28"/><rect x="30" y="86" width="140" height="14" rx="7" fill="#2A5080" opacity="0.36"/><rect x="30" y="106" width="140" height="14" rx="7" fill="#2A5080" opacity="0.46"/><rect x="30" y="126" width="140" height="14" rx="7" fill="#2A5080" opacity="0.56"/><rect x="30" y="146" width="140" height="14" rx="7" fill="#2A5080" opacity="0.70"/><text x="44" y="38" text-anchor="middle" font-family="Arial Black,sans-serif" font-size="8.5" fill="white" opacity="0.6">1</text><text x="44" y="58" text-anchor="middle" font-family="Arial Black,sans-serif" font-size="8.5" fill="white" opacity="0.65">2</text><text x="44" y="78" text-anchor="middle" font-family="Arial Black,sans-serif" font-size="8.5" fill="white" opacity="0.7">3</text><text x="44" y="98" text-anchor="middle" font-family="Arial Black,sans-serif" font-size="8.5" fill="white" opacity="0.75">4</text><text x="44" y="118" text-anchor="middle" font-family="Arial Black,sans-serif" font-size="8.5" fill="white" opacity="0.82">5</text><text x="44" y="138" text-anchor="middle" font-family="Arial Black,sans-serif" font-size="8.5" fill="white" opacity="0.88">6</text><text x="44" y="158" text-anchor="middle" font-family="Arial Black,sans-serif" font-size="8.5" fill="white">7</text><line x1="28" y1="186" x2="172" y2="186" stroke="#A8C0D0" stroke-width="0.6"/><text x="100" y="211" text-anchor="middle" font-family="Arial Black,sans-serif" font-size="17" font-weight="900" fill="#0A2040" letter-spacing="1">THE 7 HABITS</text><line x1="40" y1="221" x2="160" y2="221" stroke="#4A80B0" stroke-width="1.2"/><text x="100" y="237" text-anchor="middle" font-family="Arial,sans-serif" font-size="7" fill="#6A90A8" letter-spacing="1.3">OF HIGHLY EFFECTIVE PEOPLE</text><text x="100" y="278" text-anchor="middle" font-family="Arial,sans-serif" font-size="8.5" fill="#2A4A60" letter-spacing="0.3">Stephen Covey</text></svg>