<svg xmlns="http://www.w3.org/2000/svg" viewBox="0 0 200 296" preserveAspectRatio="xMidYMid slice" style="position:absolute;top:0;left:0;width:100%;height:100%;display:block;"><rect width="200" height="296" fill="#E8EEF2"/><polygon points="70,80 102,48 142,68 158,112 140,148 100,158 58,140 50,98" fill="#B0B8C0" opacity="0.52"/><path d="M94,53 L106,78 L96,108 L112,132 L100,158" fill="none" stroke="#8A9AA8" stroke-width="2" opacity="0.68" stroke-linecap="round" stroke-linejoin="round"/><path d="M36,102 C36,50 80,28 122,28 C162,28 176,62 176,102" fill="none" stroke="#3A5A70" stroke-width="2.5" opacity="0.62" stroke-linecap="round"/><polygon points="168,94 176,102 172,86" fill="#3A5A70" opacity="0.68"/><line x1="28" y1="194" x2="172" y2="194" stroke="#A8B8C8" stroke-width="0.6"/><text x="100" y="215" text-anchor="middle" font-family="Arial Black,sans-serif" font-size="9.5" font-weight="900" fill="#0A1A28" letter-spacing="0.3">THE OBSTACLE</text><text x="100" y="233" text-anchor="middle" font-family="Arial Black,sans-serif" font-size="9.5" font-weight="900" fill="#0A1A28" letter-spacing="0.3">IS THE WAY</text><line x1="38" y1="242" x2="162" y2="242" stroke="#3A5A70" stroke-width="1.2"/><text x="100" y="278" text-anchor="middle" font-family="Arial,sans-serif" font-size="8.5" fill="#3A5060" letter-spacing="0.3">Ryan Holiday</text></svg>