<svg xmlns="http://www.w3.org/2000/svg" viewBox="0 0 200 296" preserveAspectRatio="xMidYMid slice" style="position:absolute;top:0;left:0;width:100%;height:100%;display:block;"><rect width="200" height="296" fill="#E6F2FF"/><path d="M0,55 C50,35 100,75 150,55 C175,45 190,60 200,55" fill="none" stroke="#0EA5E9" stroke-width="3" opacity="0.18"/><path d="M0,82 C50,62 100,102 150,82 C175,72 190,87 200,82" fill="none" stroke="#0EA5E9" stroke-width="2.5" opacity="0.26"/><path d="M0,109 C50,89 100,129 150,109 C175,99 190,114 200,109" fill="none" stroke="#0077B6" stroke-width="2" opacity="0.33"/><path d="M0,136 C50,116 100,156 150,136 C175,126 190,141 200,136" fill="none" stroke="#005A8E" stroke-width="1.5" opacity="0.38"/><path d="M0,163 C50,143 100,183 150,163 C175,153 190,168 200,163" fill="none" stroke="#003D6B" stroke-width="1" opacity="0.4"/><line x1="28" y1="193" x2="172" y2="193" stroke="#90C0DC" stroke-width="0.6"/><text x="100" y="219" text-anchor="middle" font-family="Arial Black,sans-serif" font-size="11" font-weight="900" fill="#00365A" letter-spacing="0.5">СТРАТЕГІЯ</text><text x="100" y="238" text-anchor="middle" font-family="Arial Black,sans-serif" font-size="11" font-weight="900" fill="#00365A" letter-spacing="0.5">БЛАКИТНОГО</text><text x="100" y="257" text-anchor="middle" font-family="Arial Black,sans-serif" font-size="11" font-weight="900" fill="#00365A" letter-spacing="0.5">ОКЕАНУ</text><text x="100" y="278" text-anchor="middle" font-family="Arial,sans-serif" font-size="8.5" fill="#336080" letter-spacing="0.3">В. Чан Кім</text></svg>
