<svg xmlns="http://www.w3.org/2000/svg" viewBox="0 0 200 296" preserveAspectRatio="xMidYMid slice" style="position:absolute;top:0;left:0;width:100%;height:100%;display:block;"><defs><clipPath id="sp_c"><circle cx="100" cy="82" r="68"/></clipPath></defs><rect width="200" height="296" fill="#F6F1E8"/><circle cx="100" cy="82" r="68" fill="#C8621A"/><g clip-path="url(#sp_c)"><rect x="0" y="16" width="200" height="4.5" fill="#F6F1E8"/><rect x="0" y="27" width="200" height="4.5" fill="#F6F1E8"/><rect x="0" y="38" width="200" height="4.5" fill="#F6F1E8"/><rect x="0" y="49" width="200" height="4.5" fill="#F6F1E8"/><rect x="0" y="60" width="200" height="4.5" fill="#F6F1E8"/><rect x="0" y="71" width="200" height="4.5" fill="#F6F1E8"/><rect x="0" y="82" width="200" height="4.5" fill="#F6F1E8"/><rect x="0" y="93" width="200" height="4.5" fill="#F6F1E8"/><rect x="0" y="104" width="200" height="4.5" fill="#F6F1E8"/><rect x="0" y="115" width="200" height="4.5" fill="#F6F1E8"/><rect x="0" y="126" width="200" height="4.5" fill="#F6F1E8"/><rect x="0" y="137" width="200" height="4.5" fill="#F6F1E8"/><rect x="0" y="148" width="200" height="4.5" fill="#F6F1E8"/></g><line x1="20" y1="178" x2="180" y2="178" stroke="#D4C4A8" stroke-width="0.6"/><text x="100" y="215" text-anchor="middle" font-family="Arial Black, Helvetica Neue, sans-serif" font-size="31" font-weight="900" fill="#1A120A" letter-spacing="6">САПІЄНС</text><line x1="34" y1="223" x2="166" y2="223" stroke="#B86A18" stroke-width="1.3"/><text x="100" y="239" text-anchor="middle" font-family="Arial, sans-serif" font-size="7" fill="#9A8060" letter-spacing="1.5">КОРОТКА ІСТОРІЯ ЛЮДСТВА</text><text x="100" y="276" text-anchor="middle" font-family="Arial, sans-serif" font-size="9.5" fill="#3C2410" letter-spacing="0.4">Юваль Ной Харарі</text></svg>
