<svg xmlns="http://www.w3.org/2000/svg" viewBox="0 0 200 296" preserveAspectRatio="xMidYMid slice" style="position:absolute;top:0;left:0;width:100%;height:100%;display:block;"><rect width="200" height="296" fill="#EBF8F4"/><path d="M75,28 Q55,55 75,82 Q95,109 75,136 Q55,163 75,185" fill="none" stroke="#2A8A6A" stroke-width="2.2" opacity="0.68" stroke-linecap="round"/><path d="M125,28 Q145,55 125,82 Q105,109 125,136 Q145,163 125,185" fill="none" stroke="#3AA87A" stroke-width="2.2" opacity="0.58" stroke-linecap="round"/><line x1="75" y1="55" x2="125" y2="55" stroke="#2A8A6A" stroke-width="1.2" opacity="0.3"/><line x1="75" y1="82" x2="125" y2="82" stroke="#2A8A6A" stroke-width="1.2" opacity="0.3"/><line x1="75" y1="109" x2="125" y2="109" stroke="#2A8A6A" stroke-width="1.2" opacity="0.3"/><line x1="75" y1="136" x2="125" y2="136" stroke="#2A8A6A" stroke-width="1.2" opacity="0.3"/><line x1="75" y1="163" x2="125" y2="163" stroke="#2A8A6A" stroke-width="1.2" opacity="0.3"/><line x1="28" y1="194" x2="172" y2="194" stroke="#A0D0C0" stroke-width="0.6"/><text x="100" y="217" text-anchor="middle" font-family="Arial Black,sans-serif" font-size="11" font-weight="900" fill="#0A2A1A" letter-spacing="0.5">ЕГОЇСТИЧНИЙ ГЕН</text><line x1="38" y1="227" x2="162" y2="227" stroke="#2A8A6A" stroke-width="1.2"/><text x="100" y="278" text-anchor="middle" font-family="Arial,sans-serif" font-size="8.5" fill="#2A6050" letter-spacing="0.3">Річард Докінз</text></svg>
